<svg width="1600" height="780" viewBox="0 0 1600 780" fill="none" xmlns="http://www.w3.org/2000/svg">
  <defs>
    <linearGradient id="bg" x1="0" y1="0" x2="1600" y2="780" gradientUnits="userSpaceOnUse">
      <stop stop-color="#071C38"/>
      <stop offset=".45" stop-color="#0A3F8D"/>
      <stop offset="1" stop-color="#2BB8FF"/>
    </linearGradient>
    <radialGradient id="r1" cx="0" cy="0" r="1" gradientUnits="userSpaceOnUse" gradientTransform="translate(1176 262) rotate(139) scale(520 260)">
      <stop stop-color="#87D7FF" stop-opacity=".75"/>
      <stop offset="1" stop-color="#87D7FF" stop-opacity="0"/>
    </radialGradient>
    <linearGradient id="card" x1="0" y1="0" x2="1" y2="1">
      <stop stop-color="#FFFFFF" stop-opacity=".25"/>
      <stop offset="1" stop-color="#FFFFFF" stop-opacity=".08"/>
    </linearGradient>
  </defs>
  <rect width="1600" height="780" rx="36" fill="url(#bg)"/>
  <rect width="1600" height="780" rx="36" fill="url(#r1)"/>
  <path d="M0 650C325 565 586 730 910 640C1195 561 1298 383 1600 434V780H0V650Z" fill="#061B35" opacity=".26"/>
  <circle cx="1218" cy="156" r="190" fill="#fff" opacity=".06"/>
  <circle cx="200" cy="646" r="270" fill="#fff" opacity=".07"/>
  <g opacity=".9">
    <rect x="900" y="215" width="390" height="240" rx="24" fill="url(#card)" stroke="#fff" stroke-opacity=".22"/>
    <rect x="947" y="270" width="300" height="26" rx="13" fill="#fff" opacity=".78"/>
    <rect x="947" y="316" width="210" height="18" rx="9" fill="#fff" opacity=".44"/>
    <rect x="947" y="354" width="250" height="18" rx="9" fill="#fff" opacity=".34"/>
    <rect x="947" y="392" width="170" height="18" rx="9" fill="#fff" opacity=".34"/>
  </g>
  <g opacity=".8">
    <rect x="1040" y="480" width="360" height="140" rx="24" fill="#fff" opacity=".92"/>
    <path d="M1100 575C1158 535 1200 565 1248 512C1290 466 1334 496 1362 460" stroke="#0B63E6" stroke-width="12" stroke-linecap="round" stroke-linejoin="round"/>
    <circle cx="1100" cy="575" r="9" fill="#0B63E6"/><circle cx="1248" cy="512" r="9" fill="#0B63E6"/><circle cx="1362" cy="460" r="9" fill="#0B63E6"/>
  </g>
  <g opacity=".98">
    <rect x="730" y="428" width="250" height="170" rx="24" fill="#061B35" opacity=".72"/>
    <rect x="760" y="470" width="65" height="88" rx="10" fill="#fff" opacity=".92"/>
    <rect x="840" y="498" width="65" height="60" rx="10" fill="#fff" opacity=".75"/>
    <rect x="925" y="446" width="28" height="112" rx="10" fill="#1EA7FF" opacity=".9"/>
  </g>
</svg>
