<svg width="620" height="180" viewBox="0 0 620 180" fill="none" xmlns="http://www.w3.org/2000/svg">
  <defs>
    <linearGradient id="g" x1="0" y1="0" x2="620" y2="180" gradientUnits="userSpaceOnUse">
      <stop stop-color="#08254D"/>
      <stop offset=".55" stop-color="#0B63E6"/>
      <stop offset="1" stop-color="#1EA7FF"/>
    </linearGradient>
    <filter id="s" x="-20%" y="-20%" width="140%" height="140%">
      <feDropShadow dx="0" dy="12" stdDeviation="14" flood-color="#0B1F3D" flood-opacity=".16"/>
    </filter>
  </defs>
  <g filter="url(#s)">
    <path d="M82 144V47c0-11 9-20 20-20h17c30 0 54 24 54 54s-24 54-54 54h-15v-30h15c13 0 24-11 24-24s-11-24-24-24h-7v87H82z" fill="url(#g)"/>
    <path d="M41 103c11 22 34 37 60 37 23 0 44-12 56-30" stroke="url(#g)" stroke-width="16" stroke-linecap="round"/>
    <path d="M35 103c14-35 45-59 82-64" stroke="url(#g)" stroke-width="14" stroke-linecap="round"/>
    <path d="M152 25l41-13-14 41-8-18-19-10z" fill="#0B63E6"/>
    <rect x="61" y="83" width="14" height="29" rx="4" fill="#0B63E6"/>
    <rect x="82" y="68" width="14" height="44" rx="4" fill="#0B63E6"/>
    <rect x="103" y="54" width="14" height="58" rx="4" fill="#0B63E6"/>
  </g>
  <text x="220" y="94" font-family="Inter, Arial, sans-serif" font-size="54" font-weight="800" fill="#071D3A">Organiza<tspan fill="#0B63E6">Pro</tspan></text>
  <text x="223" y="128" font-family="Inter, Arial, sans-serif" font-size="18" font-weight="600" fill="#5E6B7E">Soluções para seu negócio</text>
</svg>
